<svg xmlns="http://www.w3.org/2000/svg" width="412" height="196" viewBox="0 0 412 196">
  <g id="logo_bcs" transform="translate(-523 -270)">
    <rect id="Rectangle_9" data-name="Rectangle 9" width="412" height="196" transform="translate(523 270)" fill="#ff5a5a" opacity="0"/>
    <g id="Group_18" data-name="Group 18" transform="translate(-1537.332 -203.67)">
      <path id="Path_69" data-name="Path 69" d="M2153.176,509.318c-3.261-.037-5.793,4.082-5.668,8.908.118,4.847,2.655,8.61,5.678,8.648,3.024.021,5.55-3.747,5.663-8.573s-2.424-8.966-5.673-8.983" fill="#bd2c34"/>
      <path id="Path_70" data-name="Path 70" d="M2200.934,557.147c.043-3.255-4.081-5.787-8.9-5.663-4.853.114-8.61,2.645-8.653,5.679-.022,3.018,3.746,5.544,8.583,5.663,4.815.113,8.956-2.424,8.972-5.679" fill="#bd2c34"/>
      <path id="Path_71" data-name="Path 71" d="M2153.111,604.911c3.25.037,5.781-4.076,5.663-8.907-.119-4.848-2.651-8.611-5.679-8.648-3.018-.017-5.544,3.751-5.663,8.572s2.424,8.966,5.679,8.983" fill="#bd2c34"/>
      <path id="Path_72" data-name="Path 72" d="M2105.342,557.082c-.038,3.25,4.081,5.787,8.9,5.668,4.853-.118,8.61-2.656,8.653-5.684.022-3.018-3.752-5.539-8.572-5.657s-8.967,2.429-8.983,5.673" fill="#bd2c34"/>
      <path id="Path_73" data-name="Path 73" d="M2184.507,525.891c-2.181-2.218-6.078-1.738-8.853,1.182-2.78,2.942-3.536,7.115-1.512,9.183s6.208,1.29,9.14-1.474,3.411-6.683,1.225-8.891" fill="#bd2c34"/>
      <path id="Path_74" data-name="Path 74" d="M2184.513,588.376c2.213-2.181,1.738-6.078-1.194-8.848-2.936-2.785-7.1-3.536-9.171-1.517s-1.29,6.214,1.479,9.14,6.678,3.417,8.886,1.225" fill="#bd2c34"/>
      <path id="Path_75" data-name="Path 75" d="M2122.022,588.381c2.176,2.219,6.079,1.744,8.848-1.187,2.791-2.937,3.541-7.11,1.517-9.177s-6.208-1.291-9.139,1.473-3.412,6.683-1.226,8.891" fill="#bd2c34"/>
      <path id="Path_76" data-name="Path 76" d="M2122.022,525.891c-2.213,2.181-1.738,6.079,1.188,8.853s7.1,3.536,9.177,1.512c2.057-2.03,1.29-6.208-1.474-9.139s-6.683-3.407-8.891-1.226" fill="#bd2c34"/>
      <path id="Path_77" data-name="Path 77" d="M2153.268,536.542c-1.5-.011-2.651,1.495-2.6,3.228a2.662,2.662,0,1,0,2.6-3.228" fill="#bd2c34"/>
      <path id="Path_78" data-name="Path 78" d="M2165.835,526.776c-2.127-.9-4.789.8-5.847,3.58s-.264,5.576,1.712,6.418c1.981.826,4.512-.583,5.732-3.3,1.2-2.71.535-5.8-1.6-6.694" fill="#005ab2"/>
      <path id="Path_79" data-name="Path 79" d="M2183.616,544.553c-.863-2.143-3.946-2.818-6.656-1.6-2.726,1.215-4.135,3.746-3.325,5.749.81,1.987,3.6,2.775,6.381,1.706,2.774-1.053,4.48-3.719,3.6-5.857" fill="#005ab2"/>
      <path id="Path_80" data-name="Path 80" d="M2183.622,569.7c.907-2.132-.8-4.783-3.579-5.846s-5.577-.265-6.413,1.717.583,4.507,3.3,5.727c2.7,1.2,5.8.529,6.689-1.6" fill="#005ab2"/>
      <path id="Path_81" data-name="Path 81" d="M2165.845,587.491c2.143-.875,2.813-3.952,1.6-6.662-1.214-2.726-3.746-4.135-5.743-3.325s-2.77,3.6-1.717,6.381,3.725,4.486,5.862,3.606" fill="#005ab2"/>
      <path id="Path_82" data-name="Path 82" d="M2140.7,587.5c2.132.9,4.788-.8,5.841-3.579,1.074-2.8.27-5.577-1.711-6.413s-4.5.583-5.723,3.3-.534,5.8,1.593,6.694" fill="#005ab2"/>
      <path id="Path_83" data-name="Path 83" d="M2122.913,569.714c.875,2.143,3.952,2.818,6.667,1.6s4.13-3.746,3.32-5.744-3.6-2.774-6.381-1.716-4.48,3.724-3.606,5.862" fill="#005ab2"/>
      <path id="Path_84" data-name="Path 84" d="M2122.908,544.569c-.9,2.132.8,4.788,3.579,5.841,2.791,1.074,5.571.27,6.413-1.706s-.578-4.518-3.3-5.733c-2.7-1.2-5.8-.534-6.688,1.6" fill="#005ab2"/>
      <path id="Path_85" data-name="Path 85" d="M2140.684,526.782c-2.143.869-2.818,3.952-1.6,6.661,1.22,2.726,3.752,4.13,5.744,3.326s2.775-3.6,1.711-6.381-3.719-4.481-5.857-3.606" fill="#005ab2"/>
      <path id="Path_86" data-name="Path 86" d="M2173.862,557.131c.011-1.49-1.5-2.651-3.228-2.6a2.659,2.659,0,1,0,3.228,2.6" fill="#bd2c34"/>
      <path id="Path_87" data-name="Path 87" d="M2153.268,577.73a3.208,3.208,0,1,0-2.6-3.244,2.913,2.913,0,0,0,2.6,3.244" fill="#bd2c34"/>
      <path id="Path_88" data-name="Path 88" d="M2132.673,557.131a3.205,3.205,0,1,0,3.245-2.6,2.946,2.946,0,0,0-3.245,2.6" fill="#bd2c34"/>
      <path id="Path_89" data-name="Path 89" d="M2138.708,542.577a3.2,3.2,0,1,0,4.125.454,2.94,2.94,0,0,0-4.125-.454" fill="#bd2c34"/>
      <path id="Path_90" data-name="Path 90" d="M2167.827,542.572c-1.042-1.064-2.932-.815-4.114.442a2.658,2.658,0,1,0,4.114-.442" fill="#bd2c34"/>
      <path id="Path_91" data-name="Path 91" d="M2167.827,571.7c1.063-1.047.815-2.931-.449-4.119a2.629,2.629,0,1,0-3.676,3.66,2.941,2.941,0,0,0,4.125.459" fill="#bd2c34"/>
      <path id="Path_92" data-name="Path 92" d="M2138.708,571.7a3.2,3.2,0,1,0,.454-4.13,2.911,2.911,0,0,0-.454,4.13" fill="#bd2c34"/>
      <path id="Path_93" data-name="Path 93" d="M2174.083,506.841c-1.727-.734-4.011.977-5.026,3.606-1.009,2.645-.48,5.193,1.129,5.873s3.778-.756,4.917-3.341.713-5.409-1.02-6.138" fill="#005ab2"/>
      <path id="Path_94" data-name="Path 94" d="M2203.552,536.294c-.707-1.744-3.536-2.149-6.111-1s-4,3.33-3.352,4.955c.653,1.609,3.212,2.132,5.835,1.118s4.33-3.331,3.628-5.069" fill="#005ab2"/>
      <path id="Path_95" data-name="Path 95" d="M2203.563,577.952c.729-1.727-.977-4.016-3.606-5.026-2.645-1.015-5.2-.48-5.879,1.128s.761,3.779,3.342,4.918,5.414.713,6.143-1.02" fill="#005ab2"/>
      <path id="Path_96" data-name="Path 96" d="M2174.11,607.415c1.738-.7,2.149-3.525,1-6.11s-3.326-3.995-4.95-3.353c-1.614.664-2.127,3.212-1.118,5.841,1.026,2.624,3.331,4.33,5.069,3.622" fill="#005ab2"/>
      <path id="Path_97" data-name="Path 97" d="M2132.446,607.426c1.739.734,4.017-.971,5.021-3.606,1.02-2.645.486-5.188-1.123-5.873s-3.779.761-4.918,3.336-.712,5.42,1.02,6.143" fill="#005ab2"/>
      <path id="Path_98" data-name="Path 98" d="M2102.988,577.973c.7,1.744,3.525,2.154,6.106,1.005s4-3.326,3.347-4.956c-.654-1.609-3.207-2.127-5.836-1.107s-4.329,3.32-3.617,5.058" fill="#005ab2"/>
      <path id="Path_99" data-name="Path 99" d="M2102.977,536.315c-.734,1.728.978,4.017,3.606,5.026,2.646,1.015,5.188.48,5.874-1.128s-.756-3.779-3.342-4.918-5.414-.713-6.138,1.02" fill="#005ab2"/>
      <path id="Path_100" data-name="Path 100" d="M2132.425,506.851c-1.749.7-2.159,3.526-1.01,6.106s3.331,4,4.956,3.358c1.614-.659,2.132-3.212,1.107-5.841s-3.315-4.335-5.053-3.623" fill="#005ab2"/>
      <path id="Path_101" data-name="Path 101" d="M2229.156,552.154c1.3.1,2.5.151,3.595.151a25.382,25.382,0,0,0,5.01-.481,12.369,12.369,0,0,0,4.151-1.614,8.276,8.276,0,0,0,2.85-2.99,8.9,8.9,0,0,0,1.064-4.47,9.393,9.393,0,0,0-.67-3.7,7.494,7.494,0,0,0-4.081-4.1c-.3-.124-.61-.237-.912-.329.14-.081.275-.162.41-.243a6.647,6.647,0,0,0,1.706-1.576,7.759,7.759,0,0,0,1.182-2.154,7.917,7.917,0,0,0,.438-2.64,8.4,8.4,0,0,0-.859-3.946,7.119,7.119,0,0,0-2.391-2.672,10.454,10.454,0,0,0-3.633-1.468,33.057,33.057,0,0,0-8.5-.313,25.868,25.868,0,0,0-3.066.356l-.41.086v31.683l.442.054c1.155.145,2.375.264,3.671.367m1.242-19.337v-8.772c.253-.032.539-.054.863-.07.519-.027,1.058-.043,1.625-.043a6.99,6.99,0,0,1,4.173,1.106,3.7,3.7,0,0,1,1.441,3.228,4.1,4.1,0,0,1-1.36,3.4,6.389,6.389,0,0,1-4.13,1.155Zm9.317,7.315a5.446,5.446,0,0,1,.5,2.451,4.918,4.918,0,0,1-.534,2.418,4.19,4.19,0,0,1-1.453,1.495,6.644,6.644,0,0,1-2.207.81,20.2,20.2,0,0,1-4.6.2c-.388-.011-.723-.038-1.025-.065V537.433h3.087a13.343,13.343,0,0,1,2.764.27,5.7,5.7,0,0,1,2.106.863,4.225,4.225,0,0,1,1.36,1.566" fill="#005ab2"/>
      <path id="Path_102" data-name="Path 102" d="M2251.462,550.583a8.3,8.3,0,0,0,3.06,1.322,17.51,17.51,0,0,0,3.9.4,27.335,27.335,0,0,0,4.459-.367c1.463-.254,2.662-.486,3.671-.718l.389-.087v-14.17c0-3-.805-5.22-2.4-6.618-1.582-1.377-3.876-2.073-6.856-2.073a24.287,24.287,0,0,0-3.455.259,20.3,20.3,0,0,0-3.3.75l-.356.114v.372a7.2,7.2,0,0,0,.885,3.639l.2.356.394-.13a22.367,22.367,0,0,1,2.488-.6,15.381,15.381,0,0,1,2.721-.227,5.57,5.57,0,0,1,3.417.88,3.754,3.754,0,0,1,1.08,3.11v.232c-.276-.027-.583-.054-.929-.076-.594-.048-1.36-.07-2.294-.07a13.945,13.945,0,0,0-3.638.47,9.565,9.565,0,0,0-3.126,1.446,7.052,7.052,0,0,0-3,5.966,7.872,7.872,0,0,0,.691,3.438,6.324,6.324,0,0,0,1.987,2.381m2.585-5.906a2.921,2.921,0,0,1,1.177-2.575,6.471,6.471,0,0,1,3.752-.9c.453,0,.993.027,1.63.081.443.043.826.076,1.161.119v6.127a11.837,11.837,0,0,1-1.409.216,17,17,0,0,1-3.552.021,3.53,3.53,0,0,1-1.371-.41,2.77,2.77,0,0,1-1-.945,3.212,3.212,0,0,1-.389-1.738" fill="#005ab2"/>
      <path id="Path_103" data-name="Path 103" d="M2285.595,534.307a7.969,7.969,0,0,1,.863,4.2V551.7l.416.081c.329.054.7.1,1.107.135s.761.043,1.09.043.68-.016,1.107-.043c.41-.032.782-.081,1.123-.135l.415-.081V537.346c0-2.936-.642-5.2-1.916-6.731-1.29-1.555-3.3-2.349-5.965-2.349a8.368,8.368,0,0,0-2.6.389,8.467,8.467,0,0,0-2.11,1,9.031,9.031,0,0,0-1.6,1.388c-.1.113-.194.226-.286.329-.016-.13-.027-.276-.048-.416-.092-.739-.179-1.328-.265-1.765l-.065-.34-.345-.07c-.33-.054-.626-.1-.918-.13a11.152,11.152,0,0,0-1.9,0c-.313.032-.642.076-.966.13l-.421.075V551.7l.421.081c.324.054.707.1,1.122.135a14.941,14.941,0,0,0,2.2,0c.41-.032.777-.081,1.106-.135l.421-.081V540.132a10.07,10.07,0,0,1,.47-3.282,6.156,6.156,0,0,1,1.193-2.16,4.62,4.62,0,0,1,1.7-1.193,5.5,5.5,0,0,1,2.084-.394,2.832,2.832,0,0,1,2.57,1.2" fill="#005ab2"/>
      <path id="Path_104" data-name="Path 104" d="M2313.342,548.823a8.172,8.172,0,0,0-.648-1.614l-.227-.384-.4.162a10.159,10.159,0,0,1-2.106.573,14.967,14.967,0,0,1-2.3.167,6.155,6.155,0,0,1-4.686-1.754c-1.134-1.166-1.706-3.072-1.706-5.663a8.986,8.986,0,0,1,1.533-5.479,5.222,5.222,0,0,1,4.513-1.982,14.239,14.239,0,0,1,4.632.7l.432.151.2-.41a7.883,7.883,0,0,0,.573-1.814,8.622,8.622,0,0,0,.2-1.8v-.351l-.335-.118a13.217,13.217,0,0,0-2.715-.718,21.114,21.114,0,0,0-3.25-.222,11.905,11.905,0,0,0-4.875.945,10.089,10.089,0,0,0-3.541,2.575,10.653,10.653,0,0,0-2.132,3.827,14.78,14.78,0,0,0-.718,4.7,12.668,12.668,0,0,0,2.92,8.723c1.944,2.165,4.853,3.277,8.648,3.277a16.458,16.458,0,0,0,5.971-1.025l.34-.135,0-.362a9.69,9.69,0,0,0-.324-1.965" fill="#005ab2"/>
      <path id="Path_105" data-name="Path 105" d="M2335.1,531.791a9.724,9.724,0,0,0-3.4-2.58,12.294,12.294,0,0,0-9.425,0,9.728,9.728,0,0,0-3.4,2.58,10.721,10.721,0,0,0-2.008,3.828,17.438,17.438,0,0,0,0,9.377,10.924,10.924,0,0,0,2.008,3.822,9.464,9.464,0,0,0,3.4,2.564,12.554,12.554,0,0,0,9.42,0,9.486,9.486,0,0,0,3.4-2.564,10.643,10.643,0,0,0,2-3.822,17.287,17.287,0,0,0,0-9.377,10.54,10.54,0,0,0-2-3.828m-8.109,16.1a4.28,4.28,0,0,1-3.919-1.911,10.4,10.4,0,0,1-1.312-5.673,10.294,10.294,0,0,1,1.312-5.652,4.312,4.312,0,0,1,3.919-1.9,4.4,4.4,0,0,1,3.952,1.9,10.259,10.259,0,0,1,1.322,5.652,10.365,10.365,0,0,1-1.322,5.673,4.37,4.37,0,0,1-3.952,1.911" fill="#005ab2"/>
      <path id="Path_106" data-name="Path 106" d="M2245.637,588.791l-.221-.431-.432.2a13.891,13.891,0,0,1-2.651.821,15.728,15.728,0,0,1-3.153.292,10.9,10.9,0,0,1-3.994-.7,7.947,7.947,0,0,1-3-2.051,9.557,9.557,0,0,1-1.949-3.5,16.52,16.52,0,0,1-.7-5.112c0-3.833.837-6.8,2.478-8.805a8.289,8.289,0,0,1,6.861-2.985c.7,0,1.328.021,1.873.059s1.021.108,1.463.189a12.566,12.566,0,0,1,1.247.292c.389.108.788.237,1.215.378l.453.151.184-.443c.254-.642.486-1.247.68-1.808a9.2,9.2,0,0,0,.383-1.944l.038-.394-.383-.129a21.831,21.831,0,0,0-7.487-1.188,15.651,15.651,0,0,0-6.16,1.171,13.093,13.093,0,0,0-4.686,3.374,15.131,15.131,0,0,0-2.931,5.253,21.992,21.992,0,0,0-1.009,6.829,21.141,21.141,0,0,0,1.009,6.715,14.444,14.444,0,0,0,2.937,5.128,12.854,12.854,0,0,0,4.7,3.261,16.306,16.306,0,0,0,6.224,1.134,23.483,23.483,0,0,0,4.156-.351,17.941,17.941,0,0,0,3.8-1.145l.362-.162-.054-.388a12.412,12.412,0,0,0-1.252-3.715" fill="#005ab2"/>
      <path id="Path_107" data-name="Path 107" d="M2258.684,570.519a23.739,23.739,0,0,0-3.465.264,20.31,20.31,0,0,0-3.288.745l-.367.119v.367a7.144,7.144,0,0,0,.891,3.638l.2.362.394-.13a24.014,24.014,0,0,1,2.483-.6,15.049,15.049,0,0,1,2.72-.227,5.584,5.584,0,0,1,3.418.88,3.726,3.726,0,0,1,1.085,3.1v.233c-.276-.027-.589-.049-.934-.076-.589-.049-1.35-.07-2.289-.07a14.321,14.321,0,0,0-3.644.469,9.778,9.778,0,0,0-3.12,1.452,7.339,7.339,0,0,0-2.186,2.489,7.253,7.253,0,0,0-.81,3.482,7.825,7.825,0,0,0,.691,3.428,6.265,6.265,0,0,0,1.986,2.386,8.165,8.165,0,0,0,3.056,1.317,17.279,17.279,0,0,0,3.908.405,26.6,26.6,0,0,0,4.454-.373c1.463-.253,2.666-.485,3.67-.712l.4-.087v-14.17c0-2.99-.81-5.225-2.4-6.613s-3.887-2.083-6.851-2.083m4.071,13.133v6.127a11.847,11.847,0,0,1-1.4.216,16.642,16.642,0,0,1-3.557.027,3.535,3.535,0,0,1-1.377-.415,2.669,2.669,0,0,1-.988-.945,3.238,3.238,0,0,1-.388-1.733,2.92,2.92,0,0,1,1.171-2.58,6.511,6.511,0,0,1,3.752-.9c.448,0,.993.037,1.625.086.442.043.836.076,1.166.113" fill="#005ab2"/>
      <path id="Path_108" data-name="Path 108" d="M2271.942,571.414a5.809,5.809,0,0,0-.14.875c-.027.318-.048.626-.048.923s.021.61.048.929a5.849,5.849,0,0,0,.14.869l.1.388h2.667V594.47a4.509,4.509,0,0,1-.292,1.8,2.23,2.23,0,0,1-.7.891,1.97,1.97,0,0,1-.885.361,7.464,7.464,0,0,1-3.326-.237l-.442-.157-.189.432a8.535,8.535,0,0,0-.508,1.652,12.665,12.665,0,0,0-.216,1.744l-.027.383.367.13a12.434,12.434,0,0,0,4.065.588,10.6,10.6,0,0,0,2.84-.367,6.015,6.015,0,0,0,2.359-1.236,5.9,5.9,0,0,0,1.581-2.278,9.344,9.344,0,0,0,.546-3.407V571.026h-7.844Z" fill="#005ab2"/>
      <path id="Path_109" data-name="Path 109" d="M2273.74,567.1l.378.06c.372.059.788.108,1.22.156.453.043.831.065,1.166.065s.718-.022,1.144-.065.816-.1,1.172-.156l.367-.06.048-.372c.065-.416.108-.8.141-1.166s.043-.718.043-1.053-.022-.675-.043-1.047-.076-.745-.141-1.123l-.054-.372-.361-.06c-.351-.059-.745-.108-1.172-.156a10.25,10.25,0,0,0-2.31,0c-.437.048-.848.1-1.22.156l-.373.054-.054.373a9.438,9.438,0,0,0-.135,1.128c-.032.372-.048.723-.048,1.047s.016.68.048,1.053.06.75.13,1.166Z" fill="#005ab2"/>
      <path id="Path_110" data-name="Path 110" d="M2293.265,570.519a23.622,23.622,0,0,0-3.465.264,20.686,20.686,0,0,0-3.3.745l-.351.119v.367a7.263,7.263,0,0,0,.879,3.638l.206.362.4-.13a24.352,24.352,0,0,1,2.478-.6,15.013,15.013,0,0,1,2.721-.227,5.586,5.586,0,0,1,3.422.88,3.757,3.757,0,0,1,1.08,3.1v.233c-.281-.027-.594-.049-.929-.076-.594-.049-1.355-.07-2.283-.07a14.2,14.2,0,0,0-3.649.469,9.736,9.736,0,0,0-3.121,1.452,7.057,7.057,0,0,0-3,5.971,7.825,7.825,0,0,0,.691,3.428,6.311,6.311,0,0,0,1.986,2.386,8.2,8.2,0,0,0,3.056,1.317,17.264,17.264,0,0,0,3.9.405,26.607,26.607,0,0,0,4.459-.373c1.463-.253,2.667-.485,3.676-.712l.394-.087v-14.17c0-2.99-.81-5.225-2.408-6.613-1.576-1.382-3.875-2.083-6.845-2.083m4.071,13.133v6.127a11.681,11.681,0,0,1-1.4.216,16.639,16.639,0,0,1-3.557.027,3.56,3.56,0,0,1-1.377-.415,2.588,2.588,0,0,1-.988-.945,3.084,3.084,0,0,1-.394-1.733,2.923,2.923,0,0,1,1.177-2.58,6.51,6.51,0,0,1,3.752-.9c.448,0,.993.037,1.625.086.453.043.836.076,1.166.113" fill="#005ab2"/>
      <path id="Path_111" data-name="Path 111" d="M2335.032,578.589a9.974,9.974,0,0,0-2.392-1.857,26.08,26.08,0,0,0-3.1-1.463l-2.407-.945a15.756,15.756,0,0,1-1.658-.75,6.354,6.354,0,0,1-1.317-.891,3.776,3.776,0,0,1-.853-1.1,3.039,3.039,0,0,1-.3-1.371,3.335,3.335,0,0,1,1.258-2.872,6.368,6.368,0,0,1,3.843-.988,15.557,15.557,0,0,1,3.337.33,19,19,0,0,1,2.612.756l.464.172.189-.453a13.889,13.889,0,0,0,.978-3.7l.053-.4-.383-.141a20.782,20.782,0,0,0-3.347-.88,22,22,0,0,0-3.994-.351c-3.3,0-5.922.783-7.779,2.322a8.037,8.037,0,0,0-2.84,6.5,8.734,8.734,0,0,0,.459,2.986,7.273,7.273,0,0,0,1.269,2.224,7.6,7.6,0,0,0,1.9,1.635,16.7,16.7,0,0,0,2.354,1.166l2.434.994c.961.394,1.809.761,2.532,1.1a8.027,8.027,0,0,1,1.706,1.063,3.527,3.527,0,0,1,.95,1.29,4.783,4.783,0,0,1,.324,1.857,4.232,4.232,0,0,1-1.555,3.487,7.671,7.671,0,0,1-4.923,1.312,15.927,15.927,0,0,1-3.644-.361c-1-.26-1.981-.562-2.9-.891l-.491-.173-.167.481c-.243.642-.454,1.29-.654,1.959a10.243,10.243,0,0,0-.405,2.019l-.048.405.389.135c.61.2,1.193.383,1.77.561a18.112,18.112,0,0,0,1.841.438,19.158,19.158,0,0,0,2.041.269c.723.06,1.549.087,2.44.087,3.768,0,6.747-.9,8.858-2.672a9.131,9.131,0,0,0,3.234-7.358,9.794,9.794,0,0,0-.535-3.385,7.286,7.286,0,0,0-1.538-2.553" fill="#005ab2"/>
      <path id="Path_112" data-name="Path 112" d="M2358.919,574.044a9.7,9.7,0,0,0-3.39-2.581,12.25,12.25,0,0,0-9.431,0,9.8,9.8,0,0,0-3.4,2.581,10.613,10.613,0,0,0-2,3.827,17.281,17.281,0,0,0,0,9.377,10.81,10.81,0,0,0,2,3.822,9.6,9.6,0,0,0,3.4,2.564,12.554,12.554,0,0,0,9.425,0,9.531,9.531,0,0,0,3.39-2.564,10.666,10.666,0,0,0,2.008-3.822,17.287,17.287,0,0,0,0-9.377,10.549,10.549,0,0,0-2.008-3.827m-8.1,16.1a4.293,4.293,0,0,1-3.924-1.911,12.918,12.918,0,0,1,0-11.325,4.315,4.315,0,0,1,3.924-1.9,4.382,4.382,0,0,1,3.952,1.9,10.31,10.31,0,0,1,1.322,5.657,10.417,10.417,0,0,1-1.322,5.668,4.359,4.359,0,0,1-3.952,1.911" fill="#005ab2"/>
      <path id="Path_113" data-name="Path 113" d="M2382.38,591.07a7.527,7.527,0,0,0-.648-1.614l-.227-.384-.4.162a10.354,10.354,0,0,1-2.106.572,15.009,15.009,0,0,1-2.3.162,6.175,6.175,0,0,1-4.691-1.749c-1.129-1.16-1.7-3.071-1.7-5.662a8.955,8.955,0,0,1,1.533-5.48,5.207,5.207,0,0,1,4.513-1.975,14.241,14.241,0,0,1,4.632.691l.437.156.195-.416a8.251,8.251,0,0,0,.577-1.813,8.981,8.981,0,0,0,.2-1.8v-.351l-.335-.124a13.672,13.672,0,0,0-2.715-.713,21.4,21.4,0,0,0-3.25-.221,11.988,11.988,0,0,0-4.885.945,10.072,10.072,0,0,0-3.531,2.575,10.641,10.641,0,0,0-2.132,3.822,15,15,0,0,0-.718,4.7,12.615,12.615,0,0,0,2.92,8.723c1.949,2.17,4.853,3.272,8.648,3.272a16.475,16.475,0,0,0,5.971-1.021l.345-.135-.016-.367a8.582,8.582,0,0,0-.318-1.959" fill="#005ab2"/>
      <path id="Path_114" data-name="Path 114" d="M2385.122,571.414a5.1,5.1,0,0,0-.14.875,8.748,8.748,0,0,0,0,1.846,4.929,4.929,0,0,0,.14.869l.1.394h2.667v18.549l.432.075a10.363,10.363,0,0,0,1.1.146c.405.027.75.043,1.042.043.329,0,.691-.016,1.09-.043a10.508,10.508,0,0,0,1.1-.146l.432-.075V571.026h-7.86Z" fill="#005ab2"/>
      <path id="Path_115" data-name="Path 115" d="M2386.957,566.783l.054.367.367.049c.384.064.805.113,1.247.145s.837.044,1.194.044c.318,0,.7-.017,1.117-.044a11.357,11.357,0,0,0,1.193-.145l.367-.054.054-.362a8.5,8.5,0,0,0,.113-1.177c.017-.41.027-.766.027-1.09s-.01-.681-.027-1.091a8.542,8.542,0,0,0-.113-1.144l-.059-.362-.367-.048a10.2,10.2,0,0,0-1.2-.135,16.271,16.271,0,0,0-2.295,0c-.442.027-.863.07-1.247.129l-.361.049-.06.367a7.741,7.741,0,0,0-.113,1.144c-.016.41-.027.767-.027,1.091s.011.68.027,1.09a8.615,8.615,0,0,0,.113,1.177" fill="#005ab2"/>
      <path id="Path_116" data-name="Path 116" d="M2405.63,570.519a23.635,23.635,0,0,0-3.466.264,20.321,20.321,0,0,0-3.287.745l-.362.119v.367a7.2,7.2,0,0,0,.88,3.638l.205.362.4-.13a24.271,24.271,0,0,1,2.477-.6,15.115,15.115,0,0,1,2.726-.227,5.562,5.562,0,0,1,3.412.88,3.723,3.723,0,0,1,1.085,3.1v.233c-.275-.027-.588-.049-.928-.076-.6-.049-1.355-.07-2.284-.07a14.231,14.231,0,0,0-3.649.469,9.815,9.815,0,0,0-3.126,1.452,7.109,7.109,0,0,0-3,5.971,7.913,7.913,0,0,0,.691,3.428,6.4,6.4,0,0,0,1.982,2.386,8.215,8.215,0,0,0,3.06,1.317,17.27,17.27,0,0,0,3.9.405,26.554,26.554,0,0,0,4.459-.373c1.463-.253,2.667-.485,3.676-.712l.4-.087v-14.17c0-2.99-.81-5.225-2.4-6.613-1.576-1.382-3.886-2.083-6.85-2.083m4.07,13.133v6.127a11.515,11.515,0,0,1-1.4.216,16.651,16.651,0,0,1-3.558.027,3.53,3.53,0,0,1-1.376-.415,2.706,2.706,0,0,1-.988-.945,3.178,3.178,0,0,1-.394-1.733,2.912,2.912,0,0,1,1.182-2.58,6.49,6.49,0,0,1,3.757-.9c.437,0,.983.037,1.62.086.448.043.831.076,1.16.113" fill="#005ab2"/>
      <path id="Path_117" data-name="Path 117" d="M2428.918,590.1l-.13-.491-.485.124c-.206.043-.459.086-.751.119a6.035,6.035,0,0,1-1.781-.06,1.233,1.233,0,0,1-.6-.334,2.206,2.206,0,0,1-.459-.837,6.579,6.579,0,0,1-.178-1.733v-25.2l-.426-.076a10.071,10.071,0,0,0-1.1-.129,12.154,12.154,0,0,0-2.175,0,10.2,10.2,0,0,0-1.107.129l-.415.076V587.82a8.223,8.223,0,0,0,.5,3.066,5.379,5.379,0,0,0,1.425,2.051,5.608,5.608,0,0,0,2.084,1.086,9.155,9.155,0,0,0,2.456.313c.5,0,1.036-.017,1.614-.065a5.9,5.9,0,0,0,1.592-.308l.346-.113v-.362a13.468,13.468,0,0,0-.405-3.39" fill="#005ab2"/>
      <path id="Path_118" data-name="Path 118" d="M2225.9,620.463a12.925,12.925,0,0,0,1.28.389,6.635,6.635,0,0,0,1.625.167,3.469,3.469,0,0,0,2.262-.621,2.048,2.048,0,0,0,.75-1.673,2.343,2.343,0,0,0-.151-.891,1.7,1.7,0,0,0-.475-.631,3.341,3.341,0,0,0-.788-.492c-.314-.151-.681-.313-1.1-.485l-1.058-.427a7.261,7.261,0,0,1-.983-.486,3.309,3.309,0,0,1-.766-.658,3.169,3.169,0,0,1-.508-.9,3.558,3.558,0,0,1-.183-1.215,3.247,3.247,0,0,1,1.144-2.634,4.881,4.881,0,0,1,3.217-.951,9.341,9.341,0,0,1,1.685.146,9.127,9.127,0,0,1,1.409.373,5.864,5.864,0,0,1-.411,1.533,9.568,9.568,0,0,0-1.155-.335,6.907,6.907,0,0,0-1.49-.146,2.953,2.953,0,0,0-1.792.47,1.665,1.665,0,0,0-.632,1.42,1.437,1.437,0,0,0,.162.691,1.729,1.729,0,0,0,.411.534,2.9,2.9,0,0,0,.615.421,6.948,6.948,0,0,0,.74.329l1.031.411a10.375,10.375,0,0,1,1.317.615,4.125,4.125,0,0,1,.982.761,3.039,3.039,0,0,1,.616,1.026,4.125,4.125,0,0,1,.216,1.387,3.685,3.685,0,0,1-1.318,3,5.531,5.531,0,0,1-3.681,1.1,10.141,10.141,0,0,1-1.037-.038,6.552,6.552,0,0,1-.858-.108c-.259-.048-.518-.113-.766-.183s-.5-.157-.762-.243a4.836,4.836,0,0,1,.173-.832c.087-.28.173-.556.275-.831" fill="#005ab2"/>
      <path id="Path_119" data-name="Path 119" d="M2236.606,612.992c.134-.022.291-.043.464-.054s.318-.016.442-.016.287,0,.459.016.33.032.465.054v5.193a5.343,5.343,0,0,0,.167,1.474,2.164,2.164,0,0,0,.5.918,1.788,1.788,0,0,0,.815.458,4.268,4.268,0,0,0,1.112.135,5.57,5.57,0,0,0,1.608-.2v-7.973c.135-.022.287-.043.454-.054s.313-.016.453-.016.286,0,.454.016.318.032.453.054v9.193c-.437.124-.95.243-1.544.351a10.465,10.465,0,0,1-1.857.167,9.185,9.185,0,0,1-1.716-.156,3.355,3.355,0,0,1-1.415-.637,3.261,3.261,0,0,1-.961-1.355,6.242,6.242,0,0,1-.35-2.289Z" fill="#005ab2"/>
      <path id="Path_120" data-name="Path 120" d="M2252.806,608.922a3.36,3.36,0,0,1,.453-.054c.167-.011.319-.017.454-.017s.286.006.458.017a3.432,3.432,0,0,1,.465.054v5.214a2.809,2.809,0,0,1,1.036-.961,3.372,3.372,0,0,1,1.7-.41,4.345,4.345,0,0,1,1.571.281,3.137,3.137,0,0,1,1.241.858,4.027,4.027,0,0,1,.8,1.479,7.084,7.084,0,0,1,.287,2.122,5.157,5.157,0,0,1-1.377,3.816,5.348,5.348,0,0,1-3.968,1.382,9.046,9.046,0,0,1-1.673-.162,9.955,9.955,0,0,1-1.452-.356Zm1.83,12.021a3.561,3.561,0,0,0,.712.157,6.191,6.191,0,0,0,.788.049,3.756,3.756,0,0,0,1.269-.216,2.658,2.658,0,0,0,1-.648,3.041,3.041,0,0,0,.675-1.107,4.609,4.609,0,0,0,.254-1.6,4.492,4.492,0,0,0-.54-2.386,1.936,1.936,0,0,0-1.776-.848,2.71,2.71,0,0,0-.842.135,2.453,2.453,0,0,0-.767.443,2.212,2.212,0,0,0-.561.815,3.117,3.117,0,0,0-.216,1.231Z" fill="#005ab2"/>
      <path id="Path_121" data-name="Path 121" d="M2268.93,616.225a1.825,1.825,0,0,0-.556-1.517,2.625,2.625,0,0,0-1.608-.421,7.17,7.17,0,0,0-1.215.1,10.375,10.375,0,0,0-1.1.269,2.879,2.879,0,0,1-.351-1.457,8.069,8.069,0,0,1,1.388-.313,9.127,9.127,0,0,1,1.462-.114,4.174,4.174,0,0,1,2.808.837,3.416,3.416,0,0,1,.966,2.694v5.938c-.432.1-.961.2-1.576.308a11.5,11.5,0,0,1-1.884.151,7.563,7.563,0,0,1-1.636-.162,3.427,3.427,0,0,1-1.242-.534,2.58,2.58,0,0,1-.788-.945,3.185,3.185,0,0,1-.275-1.388,2.894,2.894,0,0,1,.324-1.4,2.936,2.936,0,0,1,.874-1,3.851,3.851,0,0,1,1.28-.589,5.559,5.559,0,0,1,1.517-.2c.394,0,.718.01.971.026s.464.044.637.065Zm0,1.8c-.189-.027-.415-.049-.7-.076s-.523-.037-.723-.037a3.029,3.029,0,0,0-1.749.426,1.483,1.483,0,0,0-.6,1.3,1.6,1.6,0,0,0,.205.869,1.441,1.441,0,0,0,.507.48,1.769,1.769,0,0,0,.675.2c.243.022.481.038.7.038a8.338,8.338,0,0,0,.88-.048,5.186,5.186,0,0,0,.8-.141Z" fill="#005ab2"/>
      <path id="Path_122" data-name="Path 122" d="M2273.67,612.992c.135-.022.27-.043.394-.054a3.328,3.328,0,0,1,.4-.016,2.778,2.778,0,0,1,.378.016c.119.011.249.032.384.054.037.189.07.437.108.75a6.84,6.84,0,0,1,.053.788,3.8,3.8,0,0,1,.476-.631,3.482,3.482,0,0,1,.658-.567,3.37,3.37,0,0,1,1.906-.561,2.95,2.95,0,0,1,2.4.934,4.237,4.237,0,0,1,.777,2.763v6.014c-.135.022-.291.038-.464.054s-.329.016-.464.016-.286,0-.448-.016-.319-.032-.454-.054V616.97a3.581,3.581,0,0,0-.41-1.932,1.425,1.425,0,0,0-1.29-.621,2.591,2.591,0,0,0-.983.184,2.178,2.178,0,0,0-.815.572,2.786,2.786,0,0,0-.561,1.009,4.625,4.625,0,0,0-.216,1.49v4.81c-.135.022-.286.038-.454.054s-.318.016-.453.016-.286,0-.459-.016-.329-.032-.464-.054Z" fill="#005ab2"/>
      <path id="Path_123" data-name="Path 123" d="M2291.608,620.83a2.584,2.584,0,0,1,.259.648,3.543,3.543,0,0,1,.13.8,6.905,6.905,0,0,1-2.5.421,4.563,4.563,0,0,1-3.569-1.339,5.2,5.2,0,0,1-1.2-3.617,6.374,6.374,0,0,1,.3-1.959,4.566,4.566,0,0,1,.88-1.577,4.2,4.2,0,0,1,1.452-1.052,4.885,4.885,0,0,1,2.019-.389,9.318,9.318,0,0,1,1.366.092,6.372,6.372,0,0,1,1.128.3,3.93,3.93,0,0,1-.081.734,3.5,3.5,0,0,1-.232.729,6.273,6.273,0,0,0-2.073-.313,2.487,2.487,0,0,0-2.127.939,4.077,4.077,0,0,0-.707,2.5,3.629,3.629,0,0,0,.8,2.6,2.885,2.885,0,0,0,2.187.82,6.626,6.626,0,0,0,1.02-.07,4.559,4.559,0,0,0,.955-.259" fill="#005ab2"/>
      <path id="Path_124" data-name="Path 124" d="M2298.248,622.7a4.521,4.521,0,0,1-1.938-.383,3.771,3.771,0,0,1-1.387-1.042,4.443,4.443,0,0,1-.832-1.576,7.4,7.4,0,0,1,0-3.919,4.429,4.429,0,0,1,.832-1.571,3.993,3.993,0,0,1,1.387-1.058,5.095,5.095,0,0,1,3.876,0,4.076,4.076,0,0,1,1.393,1.058,4.521,4.521,0,0,1,.826,1.571,7.406,7.406,0,0,1,0,3.919,4.535,4.535,0,0,1-.826,1.576,3.846,3.846,0,0,1-1.393,1.042,4.518,4.518,0,0,1-1.938.383m0-1.463a2.1,2.1,0,0,0,1.884-.923,5.705,5.705,0,0,0,0-5.133,2.394,2.394,0,0,0-3.762,0,5.788,5.788,0,0,0,0,5.133,2.082,2.082,0,0,0,1.878.923" fill="#005ab2"/>
      <path id="Path_125" data-name="Path 125" d="M2315.576,616.225a1.825,1.825,0,0,0-.556-1.517,2.625,2.625,0,0,0-1.608-.421,7.17,7.17,0,0,0-1.215.1,10.494,10.494,0,0,0-1.1.269,2.879,2.879,0,0,1-.351-1.457,8.069,8.069,0,0,1,1.388-.313,9.139,9.139,0,0,1,1.463-.114,4.173,4.173,0,0,1,2.807.837,3.416,3.416,0,0,1,.966,2.694v5.938c-.432.1-.955.2-1.576.308a11.5,11.5,0,0,1-1.884.151,7.563,7.563,0,0,1-1.636-.162,3.412,3.412,0,0,1-1.241-.534,2.571,2.571,0,0,1-.789-.945,3.185,3.185,0,0,1-.275-1.388,2.892,2.892,0,0,1,.324-1.4,2.932,2.932,0,0,1,.874-1,3.851,3.851,0,0,1,1.28-.589,5.559,5.559,0,0,1,1.517-.2c.394,0,.718.01.971.026s.465.044.637.065Zm0,1.8c-.189-.027-.415-.049-.7-.076s-.524-.037-.724-.037a3.029,3.029,0,0,0-1.749.426,1.483,1.483,0,0,0-.6,1.3,1.6,1.6,0,0,0,.205.869,1.434,1.434,0,0,0,.508.48,1.757,1.757,0,0,0,.674.2c.243.022.481.038.708.038a8.314,8.314,0,0,0,.874-.048,5.186,5.186,0,0,0,.8-.141Z" fill="#005ab2"/>
      <path id="Path_126" data-name="Path 126" d="M2320.683,612.992c.135-.022.27-.043.394-.054a3.349,3.349,0,0,1,.4-.016,2.79,2.79,0,0,1,.378.016c.118.011.248.032.383.054.038.189.07.426.108.734a5.4,5.4,0,0,1,.059.761,3.487,3.487,0,0,1,.416-.637,3.008,3.008,0,0,1,.588-.545,2.9,2.9,0,0,1,.788-.383,2.968,2.968,0,0,1,.983-.151,2.783,2.783,0,0,1,1.706.453,2.745,2.745,0,0,1,.917,1.263,5.065,5.065,0,0,1,.454-.626,3.261,3.261,0,0,1,.6-.556,2.749,2.749,0,0,1,.755-.383,2.8,2.8,0,0,1,.961-.151,2.89,2.89,0,0,1,2.392.923,4.253,4.253,0,0,1,.75,2.737v6.051c-.135.022-.286.038-.459.054s-.329.016-.459.016-.291,0-.459-.016-.318-.032-.453-.054V616.97a3.762,3.762,0,0,0-.383-1.916,1.385,1.385,0,0,0-1.28-.637,1.915,1.915,0,0,0-1.527.686,3.042,3.042,0,0,0-.583,2.013v5.366c-.135.022-.287.038-.454.054s-.318.016-.448.016-.286,0-.453-.016-.319-.032-.459-.054v-5.647a3.7,3.7,0,0,0-.367-1.857,1.282,1.282,0,0,0-1.188-.62,1.92,1.92,0,0,0-.864.205,2.012,2.012,0,0,0-.712.61,3.071,3.071,0,0,0-.481,1.026,5.246,5.246,0,0,0-.178,1.435v4.848c-.135.022-.286.038-.453.054s-.319.016-.454.016-.286,0-.458-.016-.33-.032-.465-.054Z" fill="#005ab2"/>
      <path id="Path_127" data-name="Path 127" d="M2337.591,614.433h-1.2a1.807,1.807,0,0,1-.054-.34,3.039,3.039,0,0,1-.022-.378,3.176,3.176,0,0,1,.022-.383,1.967,1.967,0,0,1,.054-.34h2.99v9.49c-.135.021-.286.043-.448.054s-.318.022-.453.022-.27-.006-.432-.022-.324-.033-.453-.054Zm-.411-3.53a3.334,3.334,0,0,1-.043-.481c-.011-.172-.011-.329-.011-.459s0-.291.011-.464a2.96,2.96,0,0,1,.043-.464c.157-.022.33-.043.518-.054s.346-.016.481-.016.3,0,.48.016.351.032.5.054a2.913,2.913,0,0,1,.049.464c0,.173.01.324.01.464s-.005.287-.01.459a3.3,3.3,0,0,1-.049.481,4.1,4.1,0,0,1-.486.054c-.183.016-.335.016-.469.016s-.319,0-.5-.016a4.726,4.726,0,0,1-.518-.054" fill="#005ab2"/>
      <path id="Path_128" data-name="Path 128" d="M2348,621.257a3.629,3.629,0,0,1,2.386.7,2.326,2.326,0,0,1,.74,1.836,2.444,2.444,0,0,1-.389,1.355,3.344,3.344,0,0,1-1.074,1.036,5.385,5.385,0,0,1-1.62.664,8.224,8.224,0,0,1-2.018.232,5.825,5.825,0,0,1-2.905-.588,2.015,2.015,0,0,1-1-1.868,2.383,2.383,0,0,1,.41-1.36,2.89,2.89,0,0,1,1.053-.956,2.2,2.2,0,0,1-.621-.6,1.572,1.572,0,0,1-.248-.9,2.236,2.236,0,0,1,.3-1.176,3.148,3.148,0,0,1,.826-.891,3.2,3.2,0,0,1-.977-1.1,3.125,3.125,0,0,1-.372-1.523,3.309,3.309,0,0,1,.259-1.317,3.106,3.106,0,0,1,.745-1.063,3.538,3.538,0,0,1,1.214-.713,4.834,4.834,0,0,1,1.647-.259,4.457,4.457,0,0,1,1.511.243,3.991,3.991,0,0,1,1.15.61,3.1,3.1,0,0,1,1-.491,4.633,4.633,0,0,1,1.382-.2,3.458,3.458,0,0,1,.076.778,3.91,3.91,0,0,1-.022.426,4.316,4.316,0,0,1-.054.443h-1.662a2.6,2.6,0,0,1,.313.685,2.94,2.94,0,0,1,.113.853,3.219,3.219,0,0,1-.281,1.366,2.912,2.912,0,0,1-.782,1.042,3.609,3.609,0,0,1-1.21.669,4.963,4.963,0,0,1-1.538.232,5.066,5.066,0,0,1-1.366-.167,1.867,1.867,0,0,0-.513.454,1.014,1.014,0,0,0-.248.658.81.81,0,0,0,.243.583,1.63,1.63,0,0,0,1.069.265Zm-2.494,1.457a1.559,1.559,0,0,0-1.252.448,1.605,1.605,0,0,0-.416,1.107,1.241,1.241,0,0,0,.168.669,1.215,1.215,0,0,0,.469.416,2.44,2.44,0,0,0,.724.221,6.013,6.013,0,0,0,.912.065,4.627,4.627,0,0,0,2.316-.491,1.422,1.422,0,0,0,.831-1.231,1.052,1.052,0,0,0-.351-.848,2.1,2.1,0,0,0-1.295-.313Zm.848-4.621a1.857,1.857,0,0,0,1.479-.556,2.1,2.1,0,0,0,.48-1.42,2.178,2.178,0,0,0-.48-1.457,2.221,2.221,0,0,0-2.953,0,2.2,2.2,0,0,0-.464,1.457,2.121,2.121,0,0,0,.464,1.42,1.852,1.852,0,0,0,1.474.556" fill="#005ab2"/>
      <path id="Path_129" data-name="Path 129" d="M2357.359,622.7a4.518,4.518,0,0,1-1.938-.383,3.773,3.773,0,0,1-1.387-1.042,4.447,4.447,0,0,1-.832-1.576,7.548,7.548,0,0,1,0-3.919,4.433,4.433,0,0,1,.832-1.571,4,4,0,0,1,1.387-1.058,5.1,5.1,0,0,1,3.876,0,4.075,4.075,0,0,1,1.393,1.058,4.5,4.5,0,0,1,.825,1.571,7.373,7.373,0,0,1,0,3.919,4.513,4.513,0,0,1-.825,1.576,3.845,3.845,0,0,1-1.393,1.042,4.522,4.522,0,0,1-1.938.383m0-1.463a2.1,2.1,0,0,0,1.884-.923,5.7,5.7,0,0,0,0-5.133,2.4,2.4,0,0,0-3.763,0,5.8,5.8,0,0,0,0,5.133,2.084,2.084,0,0,0,1.879.923" fill="#005ab2"/>
      <path id="Path_130" data-name="Path 130" d="M2364.371,622.476c-.027-.172-.043-.34-.065-.507s-.027-.34-.027-.513.011-.345.027-.523.038-.357.065-.529c.173-.022.34-.038.508-.054s.34-.016.512-.016.346,0,.519.016.345.032.518.054c.021.172.043.345.059.518a5.009,5.009,0,0,1,0,1.036c-.016.173-.038.346-.059.518-.173.022-.346.044-.513.055s-.335.016-.507.016-.346,0-.519-.016-.345-.033-.518-.055" fill="#005ab2"/>
      <path id="Path_131" data-name="Path 131" d="M2228.179,636.1a.913.913,0,0,1-.059-1.824c.62-.038,62.128-4.076,86.792-3.622,24.633.448,34.96.831,35.057.831a.917.917,0,0,1,.88.95.907.907,0,0,1-.945.874c-.1-.005-10.413-.388-35.024-.831-24.578-.443-86.026,3.579-86.642,3.622Z" fill="#6498c8"/>
      <path id="Path_132" data-name="Path 132" d="M2361.294,633.586h-.038l-6.191-.259a.913.913,0,0,1,.075-1.825l6.192.26a.912.912,0,0,1-.038,1.824" fill="#6498c8"/>
      <path id="Path_133" data-name="Path 133" d="M2366.46,633.9h-.07l-1.814-.135a.9.9,0,0,1-.847-.971.928.928,0,0,1,.977-.848l1.819.13a.913.913,0,0,1-.065,1.824" fill="#6498c8"/>
    </g>
  </g>
</svg>
