<svg xmlns="http://www.w3.org/2000/svg" width="516.171" height="148.291" viewBox="0 0 516.171 148.291">
  <g id="Group_50" data-name="Group 50" transform="translate(-779 -987)">
    <path id="Path_214" data-name="Path 214" d="M171.306,39.041h12.077v8.507H171.306V72.13h-9.354V12.583H186.7V21.1h-15.4Z" transform="translate(779 987)" fill="#fff"/>
    <path id="Path_215" data-name="Path 215" d="M200.141,12.587v45.93q0,3.234,1.316,4.515a5.531,5.531,0,0,0,7.065,0q1.313-1.281,1.316-4.515V12.587h8.85V57.928q0,7.225-3.536,11.1T204.734,72.9q-6.889,0-10.418-3.871t-3.529-11.1V12.587Z" transform="translate(779 987)" fill="#fff"/>
    <path id="Path_216" data-name="Path 216" d="M233.4,29V72.133h-8.423V12.586h11.742l9.613,35.644V12.586h8.331V72.133h-9.606Z" transform="translate(779 987)" fill="#fff"/>
    <path id="Path_217" data-name="Path 217" d="M270.738,21.094V63.62h5.279a4.71,4.71,0,0,0,3.487-1.274q1.271-1.271,1.274-4.509V26.877c0-2.157-.427-3.655-1.274-4.509a4.71,4.71,0,0,0-3.487-1.274Zm-9.354-8.507h14.8q7.058,0,10.5,3.746T290.132,27.3V57.417q0,7.226-3.445,10.971t-10.5,3.739h-14.8Z" transform="translate(779 987)" fill="#fff"/>
    <path id="Path_218" data-name="Path 218" d="M304.931,53.247h9.024l-4.509-30.113ZM326.285,72.13H316.84l-1.61-10.8H303.747l-1.617,10.8h-8.591l9.522-59.54h13.7Z" transform="translate(779 987)" fill="#fff"/>
    <path id="Path_219" data-name="Path 219" d="M357.76,49.929v7.912q0,7.226-3.529,11.1T343.806,72.81q-6.889,0-10.418-3.872t-3.529-11.1V26.88q0-7.236,3.529-11.1T343.806,11.9q6.889,0,10.425,3.872t3.529,11.1v5.784h-8.85V26.278q0-3.224-1.316-4.551a5.39,5.39,0,0,0-7.058,0q-1.323,1.323-1.323,4.551V58.436c0,2.156.441,3.655,1.323,4.509a5.525,5.525,0,0,0,7.058,0c.875-.854,1.316-2.353,1.316-4.509V49.929Z" transform="translate(779 987)" fill="#fff"/>
    <rect id="Rectangle_16" data-name="Rectangle 16" width="9.354" height="59.54" transform="translate(1142.457 999.589)" fill="#fff"/>
    <path id="Path_220" data-name="Path 220" d="M388.2,58.441c0,2.149.441,3.668,1.323,4.543a5.364,5.364,0,0,0,7.057,0c.883-.875,1.324-2.394,1.324-4.543V26.283c0-2.156-.441-3.669-1.324-4.551a5.388,5.388,0,0,0-7.057,0c-.882.882-1.323,2.4-1.323,4.551ZM403.1,0l-8.682,9.437h-6.294L393.911,0ZM378.851,26.878q0-7.225,3.661-11.1,3.645-3.876,10.545-3.872T403.6,15.781q3.664,3.864,3.662,11.1v30.96q0,7.236-3.662,11.1t-10.544,3.864q-6.89,0-10.545-3.864t-3.661-11.1Z" transform="translate(779 987)" fill="#fff"/>
    <path id="Path_221" data-name="Path 221" d="M421.637,29V72.133h-8.423V12.586h11.742l9.613,35.644V12.586H442.9V72.133h-9.613Z" transform="translate(779 987)" fill="#fff"/>
    <path id="Path_222" data-name="Path 222" d="M176.711,114.444h13.064v18.827q0,7.215-3.521,11.076t-10.39,3.858q-6.868,0-10.391-3.858t-3.521-11.076V102.4q0-7.215,3.521-11.07t10.391-3.865q6.867,0,10.39,3.865t3.521,11.07v5.769h-8.821v-6.365q0-3.224-1.317-4.536a5.367,5.367,0,0,0-7.043,0q-1.312,1.313-1.309,4.536v32.06q0,3.224,1.309,4.495a5.5,5.5,0,0,0,7.043,0q1.314-1.27,1.317-4.495V122.923h-4.243Z" transform="translate(779 987)" fill="#fff"/>
    <path id="Path_223" data-name="Path 223" d="M205.125,96.632V114.87h3.647a5.886,5.886,0,0,0,4.117-1.358q1.48-1.354,1.484-4.922v-5.853a7.523,7.523,0,0,0-1.148-4.663,4.334,4.334,0,0,0-3.605-1.442Zm10.18,50.893c-.112-.4-.224-.763-.336-1.1a7.993,7.993,0,0,1-.3-1.274,16.1,16.1,0,0,1-.169-1.954c-.027-.791-.041-1.778-.041-2.968V130.9q0-4.149-1.443-5.854t-4.663-1.694h-3.227v24.176H195.8V88.153h14.08q7.287,0,10.558,3.389t3.263,10.264v4.663q0,9.168-6.106,12.049a8.363,8.363,0,0,1,4.88,4.705,21.292,21.292,0,0,1,1.31,7.933v9.158a36.46,36.46,0,0,0,.175,3.857,12.194,12.194,0,0,0,.847,3.354Z" transform="translate(779 987)" fill="#fff"/>
    <path id="Path_224" data-name="Path 224" d="M238.8,88.149v45.8c0,2.15.434,3.648,1.316,4.5a5.492,5.492,0,0,0,7.037,0c.882-.847,1.316-2.345,1.316-4.5v-45.8h8.822v45.208q0,7.215-3.522,11.07t-10.39,3.864q-6.868,0-10.39-3.864t-3.522-11.07V88.149Z" transform="translate(779 987)" fill="#fff"/>
    <path id="Path_225" data-name="Path 225" d="M272.984,96.628v20.108h4.411a4.582,4.582,0,0,0,3.388-1.19c.8-.792,1.191-2.262,1.191-4.411v-8.906c0-2.149-.392-3.62-1.191-4.411a4.582,4.582,0,0,0-3.388-1.19Zm4.411-8.479q7.037,0,10.474,3.732t3.438,10.943v7.716q0,7.215-3.438,10.943t-10.474,3.732h-4.411v22.306h-9.333V88.149Z" transform="translate(779 987)" fill="#fff"/>
    <path id="Path_226" data-name="Path 226" d="M304.624,133.871c0,2.149.434,3.661,1.316,4.536a5.357,5.357,0,0,0,7.036,0q1.313-1.312,1.317-4.536V101.8q0-3.225-1.317-4.537a5.36,5.36,0,0,0-7.036,0c-.882.875-1.316,2.387-1.316,4.537ZM295.291,102.4q0-7.2,3.648-11.069t10.516-3.858q6.867,0,10.523,3.858t3.641,11.069v30.876q0,7.2-3.641,11.07T309.455,148.2q-6.868,0-10.516-3.857t-3.648-11.07Z" transform="translate(779 987)" fill="#fff"/>
    <path id="Path_227" data-name="Path 227" d="M341.6,102.4q0-7.2,3.437-11.069t10.306-3.858q6.869,0,10.307,3.858t3.431,11.069v1.869h-8.822V101.8q0-3.225-1.225-4.537a5.149,5.149,0,0,0-6.876,0q-1.229,1.313-1.225,4.537a10.514,10.514,0,0,0,1.351,5.384,22.189,22.189,0,0,0,3.4,4.418q2.037,2.068,4.368,4.152a41.723,41.723,0,0,1,4.369,4.537,23.055,23.055,0,0,1,3.389,5.6,18.39,18.39,0,0,1,1.358,7.379q0,7.2-3.514,11.07c-2.353,2.569-5.811,3.857-10.4,3.857s-8.044-1.288-10.382-3.857-3.522-6.267-3.522-11.07v-3.647h8.822v4.243c0,2.149.433,3.647,1.309,4.494a5.524,5.524,0,0,0,7.043,0q1.314-1.271,1.317-4.494a10.566,10.566,0,0,0-1.359-5.392,22.435,22.435,0,0,0-3.4-4.4q-2.038-2.079-4.37-4.158a41.277,41.277,0,0,1-4.361-4.537,22.9,22.9,0,0,1-3.4-5.6,18.4,18.4,0,0,1-1.358-7.38" transform="translate(779 987)" fill="#fff"/>
    <path id="Path_228" data-name="Path 228" d="M383.085,133.871c0,2.149.434,3.661,1.316,4.536a5.357,5.357,0,0,0,7.036,0q1.313-1.312,1.317-4.536V101.8q0-3.225-1.317-4.537a5.36,5.36,0,0,0-7.036,0c-.882.875-1.316,2.387-1.316,4.537ZM373.752,102.4q0-7.2,3.648-11.069t10.516-3.858q6.867,0,10.523,3.858T402.08,102.4v30.876q0,7.2-3.641,11.07T387.916,148.2q-6.868,0-10.516-3.857t-3.648-11.07Z" transform="translate(779 987)" fill="#fff"/>
    <path id="Path_229" data-name="Path 229" d="M435.164,125.387v7.891q0,7.2-3.522,11.069t-10.39,3.858q-6.869,0-10.39-3.858t-3.522-11.069V102.4q0-7.215,3.522-11.069t10.39-3.865q6.868,0,10.39,3.865t3.522,11.069v5.769h-8.822v-6.364q0-3.224-1.316-4.537a5.362,5.362,0,0,0-7.037,0c-.882.875-1.316,2.388-1.316,4.537v32.06c0,2.156.434,3.654,1.316,4.495a5.5,5.5,0,0,0,7.037,0q1.313-1.261,1.316-4.495v-8.479Z" transform="translate(779 987)" fill="#fff"/>
    <rect id="Rectangle_17" data-name="Rectangle 17" width="9.333" height="59.372" transform="translate(1219.845 1075.149)" fill="#fff"/>
    <path id="Path_230" data-name="Path 230" d="M465.866,128.7h8.989l-4.5-30.029Zm21.291,18.827H477.74l-1.61-10.768H464.675l-1.61,10.768H454.5L464,88.153h13.653Z" transform="translate(779 987)" fill="#fff"/>
    <path id="Path_231" data-name="Path 231" d="M491.483,88.148v59.379H516.17v-8.485H500.816V88.148Z" transform="translate(779 987)" fill="#fff"/>
    <path id="Path_232" data-name="Path 232" d="M42.958,8.264a4.42,4.42,0,0,0-3.8,2.169L.615,76.046a4.414,4.414,0,0,0,0,4.5l38.19,64.532a4.408,4.408,0,0,0,3.788,2.162l74.82.007a4.408,4.408,0,0,0,3.823-2.22l26.613-46.552a4.415,4.415,0,0,0-.014-4.4l-37.4-64.8a4.393,4.393,0,0,0-3.816-2.2l-52.9.072a4.4,4.4,0,0,0-3.788,2.176L22.459,76.082a4.438,4.438,0,0,0,.007,4.489l27.043,45.694a4.413,4.413,0,0,0,3.8,2.162l53.2-.057a4.4,4.4,0,0,0,3.817-2.219l17.291-30.322L119.79,83.084l-17.062,30.422a4.409,4.409,0,0,1-3.816,2.227l-38.026.021a4.408,4.408,0,0,1-3.788-2.162L37.874,80.55a4.436,4.436,0,0,1-.007-4.5L57.542,41.994a4.4,4.4,0,0,1,3.8-2.169H99.069a4.4,4.4,0,0,1,3.81,2.2l29.663,52.045a4.4,4.4,0,0,1,.007,4.4L113.6,132.48a4.419,4.419,0,0,1-3.824,2.227H50.139a4.407,4.407,0,0,1-3.787-2.163L16.016,80.571a4.416,4.416,0,0,1-.008-4.5l30.816-53.14a4.393,4.393,0,0,1,3.795-2.17h59.233a4.4,4.4,0,0,1,3.816,2.2l27.659,48.773,7.6-13.317v-.007L121.308,10.448a4.413,4.413,0,0,0-3.816-2.2Z" transform="translate(779 987)" fill="#fff"/>
  </g>
</svg>
