<svg xmlns="http://www.w3.org/2000/svg" width="283.187" height="86.539" viewBox="0 0 283.187 86.539">
  <g id="_2026_territorios_detail_icon_1" data-name="2026_territorios_detail_icon_1" transform="translate(-1368.147 -687.572)">
    <rect id="Rectangle_20" data-name="Rectangle 20" width="261.609" height="79.443" rx="15" transform="translate(1389.725 691.12)" fill="#ccf2ee"/>
    <path id="Path_640" data-name="Path 640" d="M14.06,7.841H9.373L7.095,21H3.916L6.194,7.841H1.562L2.029,5.2h12.5Zm4.025,13.376a5.106,5.106,0,0,1-2.728-.754,4.571,4.571,0,0,1-1.774-2.04,5.684,5.684,0,0,1-.456-2.859l.033-.434a7.588,7.588,0,0,1,1-3.146,6.028,6.028,0,0,1,2.148-2.208,5.314,5.314,0,0,1,2.907-.732,4.063,4.063,0,0,1,3.434,1.665,5.7,5.7,0,0,1,.884,4.106l-.174,1.334H16.164a2.519,2.519,0,0,0,.553,1.823,2.112,2.112,0,0,0,1.627.705,3.766,3.766,0,0,0,2.929-1.291l1.4,1.736a4.353,4.353,0,0,1-1.909,1.557A6.244,6.244,0,0,1,18.084,21.217Zm.976-9.644a2.174,2.174,0,0,0-1.5.532,4.67,4.67,0,0,0-1.177,1.92H20.59l.065-.282a2.875,2.875,0,0,0,.011-.824,1.575,1.575,0,0,0-.532-.982A1.666,1.666,0,0,0,19.061,11.573Zm13.246.629a6.316,6.316,0,0,0-1.031-.108,2.966,2.966,0,0,0-2.593,1.226L27.327,21H24.268l2.04-11.738,2.875-.011L28.9,10.683a3.228,3.228,0,0,1,2.734-1.66,4.462,4.462,0,0,1,1.063.152Zm7.974,0a6.316,6.316,0,0,0-1.031-.108,2.966,2.966,0,0,0-2.593,1.226L35.3,21H32.242l2.04-11.738,2.875-.011-.282,1.432a3.228,3.228,0,0,1,2.734-1.66,4.462,4.462,0,0,1,1.063.152ZM43.448,21H40.367l2.04-11.738h3.081ZM42.765,6.279a1.528,1.528,0,0,1,.477-1.2A1.837,1.837,0,0,1,45.65,5.02a1.522,1.522,0,0,1,.532,1.15,1.571,1.571,0,0,1-.45,1.172,1.688,1.688,0,0,1-1.231.521,1.715,1.715,0,0,1-1.2-.412A1.515,1.515,0,0,1,42.765,6.279Zm9.482.1-.51,2.886h1.953l-.4,2.3H51.335l-1,5.88a1.5,1.5,0,0,0,.087.846q.152.293.738.315.174.011.933-.054l-.217,2.4a5.146,5.146,0,0,1-1.757.25,2.757,2.757,0,0,1-2.246-.944,3.41,3.41,0,0,1-.608-2.5l1.009-6.194h-1.66l.4-2.3h1.66l.5-2.886Zm7.572,2.669a4.708,4.708,0,0,1,2.674.8,4.49,4.49,0,0,1,1.649,2.137A6.612,6.612,0,0,1,64.516,15a7.142,7.142,0,0,1-1.947,4.529,5.5,5.5,0,0,1-4.193,1.687,4.694,4.694,0,0,1-2.647-.787A4.474,4.474,0,0,1,54.08,18.31a6.466,6.466,0,0,1-.38-2.994,7.353,7.353,0,0,1,1.974-4.621A5.385,5.385,0,0,1,59.818,9.045Zm-3.092,7.388a2.715,2.715,0,0,0,.488,1.644,1.621,1.621,0,0,0,1.313.624,2.377,2.377,0,0,0,2.213-1.3,6.47,6.47,0,0,0,.749-3.52,2.954,2.954,0,0,0-.5-1.665,1.6,1.6,0,0,0-1.318-.645,2.38,2.38,0,0,0-2.186,1.286A6.4,6.4,0,0,0,56.727,16.433ZM73.433,12.2a6.316,6.316,0,0,0-1.031-.108,2.966,2.966,0,0,0-2.593,1.226L68.454,21H65.395l2.04-11.738,2.875-.011-.282,1.432a3.228,3.228,0,0,1,2.734-1.66,4.462,4.462,0,0,1,1.063.152ZM76.6,21H73.52L75.56,9.262h3.081ZM75.918,6.279a1.528,1.528,0,0,1,.477-1.2A1.837,1.837,0,0,1,78.8,5.02a1.522,1.522,0,0,1,.532,1.15,1.571,1.571,0,0,1-.45,1.172,1.688,1.688,0,0,1-1.231.521,1.715,1.715,0,0,1-1.2-.412A1.515,1.515,0,0,1,75.918,6.279Zm9.991,2.766a4.708,4.708,0,0,1,2.674.8,4.49,4.49,0,0,1,1.649,2.137A6.612,6.612,0,0,1,90.606,15a7.142,7.142,0,0,1-1.947,4.529,5.5,5.5,0,0,1-4.193,1.687,4.694,4.694,0,0,1-2.647-.787A4.474,4.474,0,0,1,80.17,18.31a6.466,6.466,0,0,1-.38-2.994,7.353,7.353,0,0,1,1.974-4.621A5.385,5.385,0,0,1,85.909,9.045Zm-3.092,7.388a2.715,2.715,0,0,0,.488,1.644,1.621,1.621,0,0,0,1.313.624,2.377,2.377,0,0,0,2.213-1.3,6.47,6.47,0,0,0,.749-3.52,2.954,2.954,0,0,0-.5-1.665,1.6,1.6,0,0,0-1.318-.645,2.38,2.38,0,0,0-2.186,1.286A6.4,6.4,0,0,0,82.817,16.433Z" transform="translate(1512.006 717.568)" fill="#4f9994"/>
    <path id="Path_339" data-name="Path 339" d="M898.813,687.991l-90.332-.419a10.333,10.333,0,0,0-10.334,10.334v65.451a10.333,10.333,0,0,0,10.334,10.334l90.332.42a71.332,71.332,0,0,0,0-86.12Z" transform="translate(570)" fill="#4f9994"/>
    <g id="Group_39" data-name="Group 39" transform="translate(570)">
      <path id="Path_340" data-name="Path 340" d="M871.106,743.561c-1.277-2.6-4.418-4.046-7.133-5a92.206,92.206,0,0,0,5.142-7.888,16.342,16.342,0,0,1,1.942.013,3.916,3.916,0,0,1,3.35,2.567l9.256,22.552a2.674,2.674,0,0,1-.211,2.44,2.548,2.548,0,0,1-2.006,1.274H830.093a2.58,2.58,0,0,1-2.07-1.215,2.658,2.658,0,0,1-.276-2.477l9.27-22.583c1.111-2.835,2.757-2.69,5.251-2.573a91.788,91.788,0,0,0,5.148,7.9,14.676,14.676,0,0,0-6.169,3.549,4.957,4.957,0,0,0-.469,6.547,9.8,9.8,0,0,0,3.141,2.628,27.052,27.052,0,0,0,23.436.041C870.249,749.844,872.749,746.906,871.106,743.561Z" fill="#7ec1ba"/>
      <path id="Path_341" data-name="Path 341" d="M869.536,745.937c-.15,2.061-2.456,3.667-4.161,4.434a25.072,25.072,0,0,1-19.757-.2,8.462,8.462,0,0,1-2.84-2.113,3.568,3.568,0,0,1,.46-5.2,13.339,13.339,0,0,1,5.442-2.792l4.094,5.405a3.514,3.514,0,0,0,5.834,0l4.1-5.4C865.255,740.753,869.641,742.759,869.536,745.937Z" fill="#ccf2ee"/>
      <ellipse id="Ellipse_2" data-name="Ellipse 2" cx="7.389" cy="2.929" rx="7.389" ry="2.929" transform="translate(848.322 742.064)" fill="#4f9994"/>
      <path id="Path_342" data-name="Path 342" d="M857.216,743.965a2.118,2.118,0,0,1-3.051,0c-2.456-3.094-4.75-6.122-7.005-9.354a49.06,49.06,0,0,1-4.726-8.2c-2.547-5.73-3.127-11.954.371-17.414a15.512,15.512,0,0,1,18.208-5.924c7.964,2.774,11.505,11.247,9.389,19.19a31.417,31.417,0,0,1-3.185,7.561,58.272,58.272,0,0,1-4.234,6.54Zm7.438-27.549a8.913,8.913,0,0,0-8.583-8.07,9.038,9.038,0,1,0,8.583,8.07Z" fill="#ccf2ee"/>
    </g>
  </g>
</svg>
